<?xml version="1.0" encoding="utf-8"?><!DOCTYPE svg PUBLIC "-//W3C//DTD SVG 1.1//EN" "http://www.w3.org/Graphics/SVG/1.1/DTD/svg11.dtd"><svg version="1.1" id="Contours" xmlns="http://www.w3.org/2000/svg" xmlns:xlink="http://www.w3.org/1999/xlink" x="0px" y="0px" width="1066.205688px" height="1066.205688px" viewBox="-0.000005 0.000008 1066.205688 957.057251" enable-background="new 0 0 1066.205688 1066.205688" xml:space="preserve" stroke="black" fill="none" stroke-linecap='round' stroke-linejoin='round'><path class="selected"  fill="#000000" opacity="1.000000" stroke="none" 
 	d="
M349.240335 558.132934 C360.969229 568.760769 370.720920 581.563541 377.850520 595.694594 C380.635074 601.213652 383.059817 607.607710 381.017994 613.442494 C378.083404 621.828480 367.652243 624.696688 358.767785 624.751188 C343.744844 624.843343 329.049213 620.480566 314.983771 615.202252 C307.619731 612.438761 300.242853 609.348787 294.103325 604.432267 C287.963798 599.515747 283.124840 592.500508 282.424173 584.666286 C281.607656 575.536748 286.470792 566.728773 292.818674 560.116698 C303.272367 549.227933 319.662137 542.734743 333.830225 547.941483 C339.647281 550.079238 344.647832 553.971557 349.240335 558.132934 z"/><path class="selected"  fill="#000000" opacity="1.000000" stroke="none" 
 	d="
M699.035319 598.574317 C705.986342 583.298094 716.142623 569.489312 728.654562 558.303111 C733.146869 554.286799 738.026420 550.554687 743.647415 548.383052 C759.052063 542.431566 777.293438 549.843214 787.760745 562.616578 C791.480244 567.155522 794.490039 572.469382 795.290222 578.282848 C796.656914 588.212096 791.253986 598.151095 783.577193 604.595058 C775.900400 611.039021 766.222820 614.551034 756.619010 617.418897 C748.285335 619.907476 739.833354 622.007332 731.287801 623.624947 C724.093175 624.986843 716.540672 625.987291 709.548588 623.812858 C702.556504 621.638425 696.313143 615.441911 696.359847 608.119670 C696.381090 604.789785 697.656179 601.605245 699.035319 598.574317 z"/><path class="selected"  fill="#000000" opacity="1.000000" stroke="none" 
 	d="
M219.578112 119.927789 C227.282589 134.771335 211.818766 150.551360 198.697243 160.920326 C130.538295 214.781282 80.651792 291.358513 58.928166 375.469915 C37.204539 459.581317 43.769927 550.738495 77.322685 630.868741 C128.237260 752.462249 239.334172 843.779562 364.595111 884.852329 C476.171769 921.438053 599.711550 920.441741 710.683628 882.061229 C827.648925 841.607917 931.536624 757.474434 983.573552 645.182363 C1020.857564 564.726061 1030.499685 471.765204 1010.521951 385.369579 C990.544218 298.973953 941.071275 219.682596 872.251894 163.761163 C863.849521 156.933541 854.876876 150.090419 850.135614 140.357141 C845.394352 130.623863 846.568122 116.996055 855.757055 111.270690 C866.581895 104.526030 880.445690 112.053312 890.573307 119.805669 C977.713311 186.508480 1038.908431 286.252693 1058.893223 394.156595 C1078.878016 502.060497 1057.463688 617.104736 999.992157 710.590923 C954.431540 784.702197 887.422531 844.643312 811.181451 886.542576 C662.439507 968.285622 476.939972 979.720534 319.284411 916.865023 C148.049210 848.595460 10.987295 685.236344 0.638492 501.184370 C-7.329915 359.467387 59.907963 218.084568 167.507590 125.512873 C175.166879 118.923321 183.392427 112.368223 193.228838 110.059133 C203.065250 107.750043 214.923426 110.960026 219.578107 119.927793 M1061.158380 482.734986 C1061.651772 481.007362 1061.599823 478.408342 1059.810174 478.249352 C1059.096528 480.896299 1059.095112 483.731700 1059.806108 486.379358 C1061.283054 486.651165 1061.598843 484.359024 1061.211028 482.908214 z"/><path class="selected"  fill="#000000" opacity="1.000000" stroke="none" 
 	d="
M284.492572 710.210521 C362.475331 730.973465 440.321896 673.475415 521.018954 672.846533 C583.322779 672.360993 641.078881 705.757846 702.980987 712.838204 C759.907296 719.349431 821.274407 700.871697 858.442549 657.265163 C895.610692 613.658628 902.640631 544.092293 867.815447 498.592763 C844.678030 468.363443 807.812527 452.116253 771.470970 440.782977 C735.129414 429.449702 697.173897 421.576781 664.049735 402.816670 C615.930171 375.563803 581.052288 323.570099 580.246377 268.274876 C580.024005 253.017485 586.143964 233.789741 601.363091 232.687197 C612.334017 231.892413 621.425012 241.962447 624.544663 252.510465 C627.664313 263.058482 626.664305 274.337087 627.958916 285.260314 C632.524745 323.784316 665.163606 353.545853 700.374792 369.828292 C735.585979 386.110732 774.531715 392.489248 810.831824 406.173093 C850.388414 421.084515 887.450081 445.596825 910.713419 480.894013 C944.093757 531.541606 944.277288 600.773690 915.347035 654.088474 C886.416783 707.403257 830.943601 744.213999 771.290903 755.213147 C751.208424 758.916084 729.280787 760.496786 713.739809 773.744265 C662.678395 817.270176 595.631498 841.602108 528.539364 840.955200 C461.447231 840.308292 394.881976 814.688062 344.669337 770.185660 C330.983854 758.056505 310.428293 760.060903 292.179932 758.875081 C256.607923 756.563542 222.911190 739.104476 197.685614 713.917549 C172.460038 688.730621 155.305782 656.238681 144.901030 622.143929 C135.233994 590.466554 131.200624 556.223385 139.673454 524.205909 C150.039805 485.033116 178.442850 452.432362 212.116653 429.892532 C245.790456 407.352702 284.622296 393.836507 323.497028 382.403039 C351.637038 374.126765 380.544161 366.604756 405.341588 350.938088 C430.139016 335.271420 450.658774 309.573998 451.776081 280.263445 C452.469649 262.068934 449.170601 237.623758 466.302908 231.458915 C475.149771 228.275480 485.382713 233.123643 490.886964 240.746272 C496.391215 248.368902 498.038892 258.101508 498.494553 267.492654 C499.996640 298.450567 489.801139 329.836587 470.392714 354.001881 C445.731051 384.707945 408.417176 402.380441 371.128681 415.054357 C333.840186 427.728273 294.976843 436.552705 259.881198 454.423230 C224.785552 472.293755 192.834272 501.360276 183.218693 539.551906 C178.531387 558.169182 179.433583 577.868819 183.444869 596.643358 C194.586590 648.791386 232.962765 696.490685 284.492571 710.210519 M498.685271 721.320825 C476.598226 724.369282 455.177249 730.962964 433.870155 737.530948 C420.141914 741.762726 406.413673 745.994503 392.685432 750.226280 C431.348890 779.888527 480.284397 795.358545 529.015379 795.300935 C577.746360 795.243325 626.076525 779.962566 667.108435 753.673895 C638.332289 749.414658 611.984042 735.460989 584.026746 727.423746 C556.417426 719.486533 527.143078 717.393073 498.685272 721.320824 z"/><path class="selected"  fill="#000000" opacity="1.000000" stroke="none" 
 	d="
M734.593789 273.410502 C734.328101 274.994854 733.948832 276.560149 733.459858 278.090399 C730.381068 287.725496 722.722507 295.784860 713.256846 299.350712 C709.370540 300.814740 705.211532 301.551215 701.058808 301.510734 C687.398258 301.377570 674.292908 292.054217 669.687512 279.192697 C665.082116 266.331177 669.290589 250.808167 679.761662 242.034058 C690.232736 233.259948 706.252672 231.832808 718.109833 238.617800 C729.966993 245.402791 736.853161 259.937432 734.593789 273.410502 z"/><path class="selected"  fill="#000000" opacity="1.000000" stroke="none" 
 	d="
M312.179708 108.011362 C322.319204 116.599244 333.689932 123.731187 345.835401 129.120869 C359.396630 135.138809 376.539463 142.331233 377.125878 157.156166 C377.683384 171.250332 362.604451 179.941676 350.439111 187.080357 C308.226931 211.850651 278.374795 256.646214 271.762704 305.140704 C270.423552 314.962347 269.932407 325.110207 265.961425 334.192568 C261.990443 343.274929 253.407138 351.252989 243.501701 350.878420 C232.783010 350.473098 224.479071 340.313804 222.466057 329.778037 C220.453043 319.242270 223.222795 308.446405 225.972875 298.078585 C230.109241 282.484452 234.257151 266.854382 240.052920 251.797969 C253.839255 215.983438 277.023169 183.833849 306.651979 159.443742 C291.580957 149.746861 276.343136 139.912669 264.083405 126.841166 C251.823673 113.769662 242.654684 96.913368 242.363425 78.994652 C242.191301 68.405381 245.123497 57.909335 249.832376 48.423096 C261.424786 25.069691 284.305892 7.651941 309.902804 2.695775 C335.499716 -2.260390 363.228429 5.358104 382.699795 22.696830 C396.754201 35.211898 406.273037 52.001225 419.209728 65.668531 C432.146419 79.335837 451.010434 90.192940 469.208842 85.400113 C519.133477 72.251703 572.235465 71.346513 622.579227 82.785722 C629.244205 84.300151 635.447209 79.235388 640.362983 74.486641 C651.327740 63.894441 662.028229 53.028679 672.451138 41.902872 C683.045227 30.594340 693.544023 18.856494 706.746464 10.743964 C743.833805 -12.045170 798.599396 2.964468 819.430657 41.185849 C840.261919 79.407230 823.667560 133.095182 785.191535 153.452267 C779.239970 156.601152 772.041237 164.288872 777.456259 168.290638 C820.032385 199.754882 847.937964 250.288085 851.890602 303.081093 C852.655734 313.300481 852.459108 324.051949 847.684973 333.119968 C842.910839 342.187987 832.356798 348.918711 822.450659 346.293882 C813.701987 343.975748 807.992635 335.241654 805.951018 326.424353 C803.909401 317.607053 804.704174 308.417550 804.297821 299.376097 C802.212296 252.972594 768.281079 213.276274 728.778550 188.838913 C721.092045 184.083831 713.003159 179.641253 706.937924 172.940053 C700.872689 166.238853 697.127213 156.588126 700.044716 148.033517 C704.440508 135.144318 720.282893 131.252022 733.436754 127.726348 C757.021164 121.404940 782.352289 105.697579 783.720940 81.319077 C784.420536 68.857812 777.894876 56.246845 767.318256 49.620563 C756.741636 42.994281 742.547143 42.624014 731.639445 48.689873 C723.823453 53.036409 718.002144 60.147677 712.139673 66.901456 C697.766821 83.459501 682.012903 98.818370 665.095261 112.766170 C658.079343 118.550465 650.668864 124.197675 642.013435 126.984200 C626.615147 131.941519 610.029375 127.167782 594.159838 124.030895 C562.791915 117.830486 530.140687 118.201662 498.921823 125.113551 C484.034493 128.409622 469.198235 133.203761 453.958821 132.696865 C424.039654 131.701689 398.633571 110.643357 379.148224 87.917420 C367.403559 74.219510 356.160107 58.974002 339.715981 51.546982 C323.271856 44.119963 299.715517 48.629076 293.725525 65.649354 C288.277937 81.128421 299.657844 97.405673 312.179709 108.011360 z"/><path class="selected"  fill="#000000" opacity="1.000000" stroke="none" 
 	d="
M382.712470 242.443690 C386.827630 245.873454 390.105595 250.300556 392.185338 255.237406 C393.521251 258.408576 394.367087 261.785653 394.683644 265.212135 C396.264582 282.324578 382.615714 299.431268 365.579433 301.689639 C348.543153 303.948010 330.908613 290.988327 327.976363 274.055016 C325.044114 257.121706 337.294218 238.987062 354.097913 235.385546 C364.040351 233.254596 374.901446 235.933623 382.712470 242.443690 z"/></svg>